<?xml version="1.0" encoding="iso-8859-1"?>
<!-- Uploaded to: SVG Repo, www.svgrepo.com, Generator: SVG Repo Mixer Tools -->
<svg fill="#000000" height="800px" width="800px" version="1.1" id="Layer_1" xmlns="http://www.w3.org/2000/svg" xmlns:xlink="http://www.w3.org/1999/xlink" 
	 viewBox="0 0 512 512" xml:space="preserve">
<g>
	<g>
		<path d="M439.652,33.391h-50.087V16.696C389.565,7.473,382.087,0,372.87,0h-66.783c-9.217,0-16.696,7.473-16.696,16.696v16.696
			H72.348c-9.217,0-16.696,7.473-16.696,16.696s7.479,16.696,16.696,16.696h16.696v33.391h333.913V66.783h16.696
			c9.217,0,16.696-7.473,16.696-16.696S448.869,33.391,439.652,33.391z"/>
	</g>
</g>
<g>
	<g>
		<path d="M439.652,478.609h-16.696v-33.391H89.044v33.391H72.348c-9.217,0-16.696,7.473-16.696,16.696
			c0,9.223,7.479,16.696,16.696,16.696c249.718,0,151.106,0,367.304,0c9.217,0,16.696-7.473,16.696-16.696
			C456.348,486.082,448.869,478.609,439.652,478.609z"/>
	</g>
</g>
<g>
	<g>
		<path d="M89.044,133.565v278.261h333.913V133.565H89.044z M256,361.739c-39.891,0-72.348-32.456-72.348-72.348
			c0-14.358,4.206-28.245,12.163-40.152l46.305-69.299c6.195-9.272,21.565-9.272,27.76,0l46.305,69.294
			c7.956,11.913,12.162,25.799,12.162,40.157C328.348,329.283,295.891,361.739,256,361.739z"/>
	</g>
</g>
</svg>