<?xml version="1.0" encoding="iso-8859-1"?>
<!-- Uploaded to: SVG Repo, www.svgrepo.com, Generator: SVG Repo Mixer Tools -->
<!DOCTYPE svg PUBLIC "-//W3C//DTD SVG 1.1//EN" "http://www.w3.org/Graphics/SVG/1.1/DTD/svg11.dtd">
<svg fill="#000000" height="800px" width="800px" version="1.1" id="Capa_1" xmlns="http://www.w3.org/2000/svg" xmlns:xlink="http://www.w3.org/1999/xlink" 
	 viewBox="0 0 490 490" xml:space="preserve">
<g>
	<path d="M359.171,127.364c2.261,2.261,5.926,2.261,8.186,0l42.979-42.979c2.261-2.261,2.261-5.926,0-8.187L335.833,1.695
		c-2.26-2.26-5.925-2.26-8.186,0l-42.979,42.979c-2.26,2.261-2.26,5.926,0,8.187L359.171,127.364z"/>
	<path d="M154.923,339.799l42.979-42.979c2.261-2.261,2.26-5.925,0-8.186l-74.504-74.504c-2.26-2.26-5.925-2.261-8.186-0.001
		L72.233,257.11c-2.261,2.26-2.261,5.925-0.001,8.185l74.503,74.503C148.997,342.06,152.662,342.06,154.923,339.799z"/>
	<g>
		<path d="M219.299,281.745c2.26,2.261,5.926,2.261,8.187,0.001l82.89-82.889c-0.356-2.57-0.555-5.19-0.555-7.857
			c0-22.878,13.556-42.64,33.051-51.706L263.298,59.72c-2.261-2.261-5.925-2.261-8.186,0L130.286,184.547
			c-2.261,2.26-2.262,5.925-0.002,8.185L219.299,281.745z"/>
		<path d="M403.82,191c0-20.435-16.565-37-37-37.001c-20.434,0.001-37,16.566-37,37.001c0,20.434,16.567,36.999,36.999,36.999
			c0.001,0,0,0,0.001,0C387.255,228,403.82,211.435,403.82,191z"/>
		<path d="M367.987,247.971c7.504,15.041,11.475,31.728,11.475,49.028c0,29.382-11.442,57.006-32.219,77.782
			c-29.306,29.306-71.168,38.581-108.428,27.838c4.153-2.104,7.005-6.4,7.005-11.374v-18.083h-169v18.083
			c0,7.045,5.712,12.754,12.756,12.754h74.777c12.273,12.059,26.119,21.576,40.879,28.553
			c-37.457,9.224-63.867,31.468-63.867,57.447h204.911c0-19.443-14.794-36.793-37.938-48.16
			c24.63-6.567,47.904-19.489,67.189-38.773c28.332-28.332,43.935-66,43.935-106.066c0-22.463-4.92-44.165-14.224-63.897
			C395,242.464,381.905,247.693,367.987,247.971z"/>
	</g>
</g>
</svg>